<svg width="35" height="35" viewBox="0 0 35 35" fill="none" xmlns="http://www.w3.org/2000/svg">
<path d="M27.7084 16.0417H11.4189L18.5355 8.92499C19.1043 8.35624 19.1043 7.4229 18.5355 6.85415C18.4006 6.71896 18.2404 6.6117 18.0639 6.53852C17.8875 6.46534 17.6984 6.42767 17.5074 6.42767C17.3164 6.42767 17.1273 6.46534 16.9509 6.53852C16.7745 6.6117 16.6142 6.71896 16.4793 6.85415L6.86886 16.4646C6.73367 16.5995 6.62641 16.7597 6.55323 16.9362C6.48005 17.1126 6.44238 17.3017 6.44238 17.4927C6.44238 17.6837 6.48005 17.8728 6.55323 18.0492C6.62641 18.2257 6.73367 18.3859 6.86886 18.5208L16.4793 28.1312C16.6143 28.2663 16.7746 28.3734 16.951 28.4464C17.1274 28.5195 17.3165 28.5571 17.5074 28.5571C17.6983 28.5571 17.8874 28.5195 18.0638 28.4464C18.2402 28.3734 18.4005 28.2663 18.5355 28.1312C18.6705 27.9962 18.7776 27.8359 18.8507 27.6595C18.9238 27.4831 18.9614 27.2941 18.9614 27.1031C18.9614 26.9122 18.9238 26.7231 18.8507 26.5467C18.7776 26.3703 18.6705 26.21 18.5355 26.075L11.4189 18.9583H27.7084C28.5105 18.9583 29.1668 18.3021 29.1668 17.5C29.1668 16.6979 28.5105 16.0417 27.7084 16.0417Z" fill="white"/>
</svg>
